<svg width="20" height="19" viewBox="0 0 20 19" fill="none" xmlns="http://www.w3.org/2000/svg">
<path d="M8.24609 11.875L8.24609 9.5" stroke="black" stroke-width="2" stroke-linecap="round"/>
<path d="M11.5449 11.875L11.5449 9.5" stroke="black" stroke-width="2" stroke-linecap="round"/>
<path d="M2.47363 5.54199H17.3174V5.54199C16.877 5.54199 16.6568 5.54199 16.4733 5.57653C15.6637 5.72899 15.0304 6.36228 14.878 7.17189C14.8434 7.35533 14.8434 7.57554 14.8434 8.01595V11.8337C14.8434 13.7193 14.8434 14.6621 14.2576 15.2479C13.6719 15.8337 12.729 15.8337 10.8434 15.8337H8.94759C7.06197 15.8337 6.11916 15.8337 5.53338 15.2479C4.94759 14.6621 4.94759 13.7193 4.94759 11.8337V8.01595C4.94759 7.57554 4.94759 7.35533 4.91305 7.17189C4.7606 6.36228 4.1273 5.72899 3.31769 5.57653C3.13425 5.54199 2.91405 5.54199 2.47363 5.54199V5.54199Z" stroke="black" stroke-width="2" stroke-linecap="round"/>
<path d="M8.30251 2.66838C8.39648 2.58422 8.60354 2.50984 8.89158 2.4568C9.17962 2.40375 9.53255 2.375 9.89562 2.375C10.2587 2.375 10.6116 2.40375 10.8996 2.4568C11.1877 2.50984 11.3948 2.58422 11.4887 2.66838" stroke="black" stroke-width="2" stroke-linecap="round"/>
</svg>
