<svg width="20" height="23" viewBox="0 0 20 23" fill="none" xmlns="http://www.w3.org/2000/svg">
<path d="M8.09375 1.45547C8.87054 1.58574 9.39732 2.32695 9.26786 3.10859L8.83036 5.75H13.0759L13.5893 2.63692C13.7188 1.85527 14.4554 1.3252 15.2321 1.45547C16.0089 1.58574 16.5357 2.32695 16.4062 3.10859L15.9732 5.75H18.5714C19.3616 5.75 20 6.39238 20 7.1875C20 7.98262 19.3616 8.625 18.5714 8.625H15.4955L14.5446 14.375H17.1429C17.933 14.375 18.5714 15.0174 18.5714 15.8125C18.5714 16.6076 17.933 17.25 17.1429 17.25H14.067L13.5536 20.3631C13.4241 21.1447 12.6875 21.6748 11.9107 21.5445C11.1339 21.4143 10.6071 20.673 10.7366 19.8914L11.1741 17.2545H6.92411L6.41071 20.3676C6.28125 21.1492 5.54464 21.6793 4.76786 21.549C3.99107 21.4188 3.46429 20.6775 3.59375 19.8959L4.02679 17.25H1.42857C0.638393 17.25 0 16.6076 0 15.8125C0 15.0174 0.638393 14.375 1.42857 14.375H4.50446L5.45536 8.625H2.85714C2.06696 8.625 1.42857 7.98262 1.42857 7.1875C1.42857 6.39238 2.06696 5.75 2.85714 5.75H5.93304L6.44643 2.63692C6.57589 1.85527 7.3125 1.3252 8.08929 1.45547H8.09375ZM8.35268 8.625L7.40179 14.375H11.6473L12.5982 8.625H8.35268Z" fill="#444BF2"/>
</svg>
