<svg width="29" height="29" viewBox="0 0 29 29" fill="none" xmlns="http://www.w3.org/2000/svg">
<path fill-rule="evenodd" clip-rule="evenodd" d="M13.1483 7.71471C12.4958 8.14569 11.7177 8.8097 10.5682 9.79497L9.35985 10.8307C8.03024 11.9704 7.6664 12.3163 7.47115 12.7408C7.2759 13.1653 7.25005 13.6667 7.25005 15.4179V20.5417C7.25005 21.7151 7.25262 22.4735 7.32776 23.0324C7.39822 23.5565 7.51198 23.7208 7.60397 23.8128C7.69595 23.9047 7.86022 24.0185 8.38432 24.089C8.94318 24.1641 9.70167 24.1667 10.8751 24.1667H18.1251C19.2984 24.1667 20.0569 24.1641 20.6158 24.089C21.1399 24.0185 21.3042 23.9047 21.3961 23.8128C21.4881 23.7208 21.6019 23.5565 21.6723 23.0324C21.7475 22.4735 21.7501 21.7151 21.7501 20.5417V15.4179C21.7501 13.6667 21.7242 13.1653 21.529 12.7408C21.3337 12.3163 20.9699 11.9704 19.6403 10.8307L18.4319 9.79497C17.2824 8.8097 16.5043 8.14569 15.8518 7.71471C15.2275 7.30241 14.844 7.19107 14.5001 7.19107C14.1562 7.19107 13.7726 7.30241 13.1483 7.71471ZM11.8165 5.69817C12.6532 5.14554 13.503 4.77441 14.5001 4.77441C15.4971 4.77441 16.3469 5.14554 17.1836 5.69817C17.9777 6.22261 18.8702 6.98767 19.9459 7.90977L21.213 8.99582C21.2715 9.04595 21.3293 9.09539 21.3863 9.14421C22.4624 10.065 23.2801 10.7646 23.7245 11.731C24.169 12.6973 24.1681 13.7734 24.1668 15.1897C24.1668 15.2648 24.1667 15.3408 24.1667 15.4179L24.1667 20.6212C24.1668 21.6924 24.1668 22.6153 24.0675 23.3544C23.961 24.1465 23.7208 24.9058 23.105 25.5216C22.4891 26.1374 21.7299 26.3776 20.9378 26.4841C20.1987 26.5834 19.2758 26.5834 18.2046 26.5833H10.7955C9.72435 26.5834 8.8014 26.5834 8.0623 26.4841C7.27022 26.3776 6.51097 26.1374 5.89512 25.5216C5.27928 24.9058 5.03913 24.1465 4.93264 23.3544C4.83327 22.6153 4.83332 21.6924 4.83338 20.6212L4.83339 15.4179C4.83339 15.3408 4.83332 15.2648 4.83326 15.1897C4.83204 13.7734 4.83111 12.6973 5.27557 11.731C5.72004 10.7646 6.53766 10.065 7.61378 9.14422C7.67083 9.0954 7.72862 9.04595 7.78711 8.99582L8.99544 7.9601C9.01508 7.94327 9.03466 7.92649 9.05417 7.90976C10.1299 6.98767 11.0224 6.2226 11.8165 5.69817Z" fill="#444BF2"/>
<path fill-rule="evenodd" clip-rule="evenodd" d="M10.2709 19.3333C10.2709 17.9986 11.3529 16.9167 12.6875 16.9167H16.3125C17.6472 16.9167 18.7292 17.9986 18.7292 19.3333V25.375C18.7292 26.0423 18.1882 26.5833 17.5209 26.5833C16.8535 26.5833 16.3125 26.0423 16.3125 25.375V19.3333H12.6875V25.375C12.6875 26.0423 12.1466 26.5833 11.4792 26.5833C10.8119 26.5833 10.2709 26.0423 10.2709 25.375V19.3333Z" fill="#444BF2"/>
</svg>
