<svg width="56" height="56" viewBox="0 0 56 56" fill="none" xmlns="http://www.w3.org/2000/svg">
<path d="M7 15C7 11.2288 7 9.34315 8.17157 8.17157C9.34315 7 11.2288 7 15 7H41C44.7712 7 46.6569 7 47.8284 8.17157C49 9.34315 49 11.2288 49 15V41C49 44.7712 49 46.6569 47.8284 47.8284C46.6569 49 44.7712 49 41 49H15C11.2288 49 9.34315 49 8.17157 47.8284C7 46.6569 7 44.7712 7 41V15Z" stroke="#444BF2" stroke-width="2"/>
<path fill-rule="evenodd" clip-rule="evenodd" d="M47 36.2522L40.8689 30.121L40.8224 30.0745L40.8223 30.0744C40.1955 29.4476 39.6554 28.9075 39.1648 28.5331C38.639 28.1319 38.0541 27.8281 37.3333 27.8281C36.6126 27.8281 36.0277 28.1319 35.5019 28.5331C35.0112 28.9075 34.4712 29.4476 33.8444 30.0745L33.7978 30.121L29.3817 34.5371C28.8853 35.0335 28.5912 35.3239 28.3628 35.4935L28.3528 35.5009L28.3463 35.4903C28.1973 35.2481 28.032 34.8692 27.7555 34.2239L24.2465 26.0362L24.215 25.9628C23.7147 24.7952 23.2952 23.8164 22.8625 23.1131C22.41 22.3776 21.8195 21.7354 20.8927 21.5569C19.9659 21.3784 19.1791 21.7554 18.4858 22.2702C17.8228 22.7625 17.0698 23.5156 16.1716 24.4139L16.1152 24.4703L9 31.5855V34.4139L17.5294 25.8845C18.4991 24.9149 19.1481 24.2696 19.6782 23.8759C20.1918 23.4945 20.3993 23.4986 20.5145 23.5208C20.6297 23.543 20.8239 23.6163 21.1591 24.1611C21.5051 24.7235 21.868 25.5637 22.4082 26.8241L25.9172 35.0117L25.944 35.0742L25.944 35.0742C26.1843 35.6353 26.4068 36.1546 26.6429 36.5384C26.8985 36.9538 27.2928 37.4171 27.9591 37.5454C28.6254 37.6737 29.1636 37.39 29.5552 37.0992C29.9169 36.8306 30.3163 36.4311 30.7478 35.9994L30.7479 35.9994L30.7959 35.9513L35.212 31.5352C35.8987 30.8486 36.344 30.4062 36.715 30.1232C37.063 29.8577 37.2257 29.8281 37.3333 29.8281C37.441 29.8281 37.6037 29.8577 37.9516 30.1232C38.3226 30.4062 38.768 30.8486 39.4547 31.5352L45.9596 38.0401L47 36.9997V36.2522ZM28.2161 35.5861C28.2161 35.586 28.2176 35.5853 28.2205 35.5844C28.2175 35.5857 28.216 35.5862 28.2161 35.5861ZM28.4447 35.6276C28.447 35.6295 28.4482 35.6307 28.4482 35.6308C28.4482 35.6309 28.447 35.6299 28.4447 35.6276Z" fill="#444BF2"/>
<circle cx="38.5" cy="17.5" r="3.5" fill="#444BF2"/>
</svg>
