<svg width="20" height="20" viewBox="0 0 20 20" fill="none" xmlns="http://www.w3.org/2000/svg">
<path d="M8.5905 11.4105C9.0005 11.8005 9.0005 12.4405 8.5905 12.8305C8.2005 13.2205 7.5605 13.2205 7.1705 12.8305C6.23388 11.8925 5.70781 10.6211 5.70781 9.2955C5.70781 7.96993 6.23388 6.69853 7.1705 5.7605L10.7105 2.2205C11.6485 1.28388 12.9199 0.757812 14.2455 0.757813C15.5711 0.757812 16.8425 1.28388 17.7805 2.2205C18.7171 3.15853 19.2432 4.42993 19.2432 5.7555C19.2432 7.08108 18.7171 8.35248 17.7805 9.2905L16.2905 10.7805C16.3005 9.9605 16.1705 9.1405 15.8905 8.3605L16.3605 7.8805C16.6408 7.60319 16.8634 7.27303 17.0153 6.90913C17.1672 6.54524 17.2454 6.15483 17.2454 5.7605C17.2454 5.36618 17.1672 4.97577 17.0153 4.61187C16.8634 4.24798 16.6408 3.91782 16.3605 3.6405C16.0832 3.36017 15.753 3.13761 15.3891 2.98572C15.0252 2.83383 14.6348 2.75563 14.2405 2.75563C13.8462 2.75563 13.4558 2.83383 13.0919 2.98572C12.728 3.13761 12.3978 3.36017 12.1205 3.6405L8.5905 7.1705C8.31017 7.44782 8.08761 7.77798 7.93572 8.14187C7.78383 8.50577 7.70563 8.89618 7.70563 9.2905C7.70563 9.68483 7.78383 10.0752 7.93572 10.4391C8.08761 10.803 8.31017 11.1332 8.5905 11.4105ZM11.4105 7.1705C11.8005 6.7805 12.4405 6.7805 12.8305 7.1705C13.7671 8.10853 14.2932 9.37993 14.2932 10.7055C14.2932 12.0311 13.7671 13.3025 12.8305 14.2405L9.2905 17.7805C8.35248 18.7171 7.08108 19.2432 5.7555 19.2432C4.42993 19.2432 3.15853 18.7171 2.2205 17.7805C1.28388 16.8425 0.757812 15.5711 0.757812 14.2455C0.757812 12.9199 1.28388 11.6485 2.2205 10.7105L3.7105 9.2205C3.7005 10.0405 3.8305 10.8605 4.1105 11.6505L3.6405 12.1205C3.36017 12.3978 3.13761 12.728 2.98572 13.0919C2.83383 13.4558 2.75563 13.8462 2.75563 14.2405C2.75563 14.6348 2.83383 15.0252 2.98572 15.3891C3.13761 15.753 3.36017 16.0832 3.6405 16.3605C3.91782 16.6408 4.24798 16.8634 4.61187 17.0153C4.97577 17.1672 5.36618 17.2454 5.7605 17.2454C6.15483 17.2454 6.54524 17.1672 6.90913 17.0153C7.27303 16.8634 7.60319 16.6408 7.8805 16.3605L11.4105 12.8305C11.6908 12.5532 11.9134 12.223 12.0653 11.8591C12.2172 11.4952 12.2954 11.1048 12.2954 10.7105C12.2954 10.3162 12.2172 9.92577 12.0653 9.56187C11.9134 9.19798 11.6908 8.86782 11.4105 8.5905C11.3134 8.4995 11.236 8.38953 11.183 8.26741C11.1301 8.14529 11.1028 8.0136 11.1028 7.8805C11.1028 7.74741 11.1301 7.61572 11.183 7.4936C11.236 7.37148 11.3134 7.26151 11.4105 7.1705Z" fill="#F49C45"/>
</svg>
