<svg width="26" height="26" viewBox="0 0 26 26" fill="none" xmlns="http://www.w3.org/2000/svg">
<path d="M9.80462 7.41275C9.96587 6.64461 10.0465 6.26054 10.3251 6.03653C10.6037 5.81251 10.9962 5.81625 11.781 5.82372L13.805 5.84299C14.5898 5.85047 14.9823 5.8542 15.2566 6.08348C15.5309 6.31276 15.6042 6.6983 15.7508 7.46936L16.0905 9.25656C16.1588 9.6155 16.1929 9.79496 16.2348 9.97121C16.42 10.7512 16.7214 11.4988 17.1288 12.1892C17.2209 12.3452 17.3208 12.4982 17.5205 12.8041L17.9199 13.4156C18.2156 13.8685 17.9508 14.4761 17.4178 14.5678C14.2996 15.1041 11.1102 15.0737 8.00275 14.4781C7.47155 14.3763 7.21837 13.7638 7.52266 13.3166L7.93358 12.7128C8.13913 12.4107 8.24191 12.2597 8.33694 12.1055C8.75748 11.423 9.07305 10.6812 9.27309 9.90492C9.31829 9.72951 9.35582 9.55073 9.43088 9.19316L9.80462 7.41275Z" fill="#616569" stroke="#616569" stroke-width="2"/>
<path d="M12.6567 20.1517L12.7021 15.3789" stroke="#616569" stroke-width="2" stroke-linecap="round"/>
</svg>
