<svg width="24" height="24" viewBox="0 0 24 24" fill="none" xmlns="http://www.w3.org/2000/svg">
<path d="M12 16C12.7911 16 13.5644 15.7654 14.2222 15.3259C14.88 14.8864 15.3927 14.2616 15.6955 13.5307C15.9982 12.7998 16.0774 11.9956 15.9231 11.2196C15.7688 10.4437 15.3878 9.73098 14.8284 9.17157C14.269 8.61216 13.5562 8.2312 12.7803 8.07686C12.0044 7.92252 11.2001 8.00173 10.4692 8.30448C9.73832 8.60723 9.11361 9.11992 8.67408 9.77772C8.23455 10.4355 7.99996 11.2089 7.99996 12C7.99996 13.0609 8.42138 14.0783 9.17153 14.8284C9.92168 15.5786 10.9391 16 12 16ZM12 10C12.3955 10 12.7822 10.1173 13.1111 10.3371C13.44 10.5568 13.6963 10.8692 13.8477 11.2346C13.9991 11.6001 14.0387 12.0022 13.9615 12.3902C13.8844 12.7781 13.6939 13.1345 13.4142 13.4142C13.1345 13.6939 12.7781 13.8844 12.3901 13.9616C12.0022 14.0387 11.6 13.9991 11.2346 13.8478C10.8691 13.6964 10.5568 13.44 10.337 13.1111C10.1173 12.7822 9.99996 12.3956 9.99996 12C9.99996 11.4696 10.2107 10.9609 10.5857 10.5858C10.9608 10.2107 11.4695 10 12 10ZM3.49996 12.877L2.49996 13.456C2.27243 13.5872 2.07298 13.762 1.913 13.9703C1.75303 14.1787 1.63565 14.4165 1.56759 14.6702C1.49952 14.9239 1.48209 15.1885 1.5163 15.4489C1.55051 15.7093 1.63568 15.9605 1.76696 16.188L3.25596 18.766C3.38712 18.9939 3.56192 19.1937 3.77037 19.3539C3.97882 19.5142 4.21682 19.6317 4.47076 19.6999C4.7247 19.7681 4.98958 19.7855 5.25026 19.7512C5.51094 19.7169 5.7623 19.6315 5.98996 19.5L6.99996 18.916C7.15409 18.829 7.32845 18.7842 7.50543 18.7861C7.68242 18.7881 7.85576 18.8367 8.00796 18.927C8.15827 19.014 8.2831 19.139 8.36996 19.2894C8.45683 19.4398 8.50269 19.6103 8.50296 19.784V21C8.50296 21.5304 8.71367 22.0391 9.08874 22.4142C9.46382 22.7893 9.97253 23 10.503 23H13.503C14.0334 23 14.5421 22.7893 14.9172 22.4142C15.2922 22.0391 15.503 21.5304 15.503 21V19.782C15.5056 19.6075 15.5535 19.4367 15.6419 19.2862C15.7303 19.1358 15.8562 19.0108 16.0074 18.9236C16.1585 18.8363 16.3297 18.7898 16.5042 18.7884C16.6787 18.7871 16.8505 18.8311 17.003 18.916L18.012 19.498C18.4713 19.7632 19.0172 19.8351 19.5296 19.6978C20.0419 19.5605 20.4787 19.2253 20.744 18.766L22.232 16.188C22.3632 15.9605 22.4484 15.7093 22.4826 15.4489C22.5168 15.1885 22.4994 14.9239 22.4313 14.6702C22.3633 14.4165 22.2459 14.1787 22.0859 13.9703C21.9259 13.762 21.7265 13.5872 21.499 13.456L20.499 12.877C20.3439 12.7867 20.2157 12.6565 20.1278 12.5001C20.0399 12.3436 19.9954 12.1664 19.999 11.987C19.9993 11.8118 20.0457 11.6398 20.1334 11.4881C20.2212 11.3365 20.3472 11.2106 20.499 11.123L21.499 10.544C21.7265 10.4128 21.9259 10.238 22.0859 10.0297C22.2459 9.82132 22.3633 9.58352 22.4313 9.32982C22.4994 9.07613 22.5168 8.81151 22.4826 8.55108C22.4484 8.29065 22.3632 8.03951 22.232 7.812L20.742 5.234C20.6108 5.00639 20.4361 4.80684 20.2278 4.64677C20.0195 4.48669 19.7817 4.36922 19.528 4.30106C19.2743 4.23289 19.0097 4.21538 18.7492 4.24952C18.4887 4.28365 18.2375 4.36877 18.01 4.5L17 5.083C16.8475 5.16828 16.6755 5.21248 16.5008 5.21125C16.3261 5.21002 16.1547 5.1634 16.0035 5.07598C15.8522 4.98856 15.7263 4.86332 15.638 4.71256C15.5497 4.5618 15.5022 4.39069 15.5 4.216V3C15.5 2.46957 15.2892 1.96086 14.9142 1.58579C14.5391 1.21071 14.0304 1 13.5 1H10.5C9.96953 1 9.46082 1.21071 9.08574 1.58579C8.71067 1.96086 8.49996 2.46957 8.49996 3V4.294C8.49993 4.44408 8.46035 4.5915 8.38521 4.72141C8.31008 4.85132 8.20203 4.95914 8.07196 5.034L7.91796 5.123C7.78781 5.19699 7.64067 5.23589 7.49096 5.23589C7.34125 5.23589 7.19411 5.19699 7.06396 5.123L5.98996 4.5C5.76246 4.36853 5.51129 4.28317 5.2508 4.24881C4.99031 4.21444 4.72559 4.23174 4.47179 4.29972C4.21798 4.3677 3.98006 4.48502 3.77161 4.64499C3.56317 4.80495 3.38828 5.00442 3.25696 5.232L1.76896 7.813C1.50399 8.27215 1.43214 8.81771 1.56921 9.3298C1.70628 9.84189 2.04105 10.2786 2.49996 10.544L3.49996 11.122C3.65492 11.2127 3.78292 11.3431 3.87079 11.4997C3.95867 11.6563 4.00325 11.8335 3.99996 12.013C4.00021 12.1883 3.95409 12.3606 3.86628 12.5123C3.77847 12.6641 3.65209 12.7899 3.49996 12.877ZM4.49996 9.39L3.49996 8.812L4.98996 6.234L6.06396 6.854C6.49754 7.10317 6.98888 7.23429 7.48896 7.23429C7.98904 7.23429 8.48037 7.10317 8.91396 6.854L9.06796 6.766C9.50219 6.51541 9.86301 6.15519 10.1143 5.72137C10.3656 5.28755 10.4986 4.79535 10.5 4.294V3H13.5V4.216C13.502 4.74183 13.6419 5.25793 13.9057 5.71284C14.1694 6.16775 14.5478 6.54558 15.0031 6.80864C15.4584 7.0717 15.9747 7.21082 16.5005 7.21211C17.0264 7.2134 17.5434 7.07682 18 6.816L19.007 6.234L20.5 8.812L19.5 9.39C19.0446 9.65664 18.667 10.0378 18.4046 10.4956C18.1421 10.9534 18.0041 11.4718 18.0041 11.9995C18.0041 12.5272 18.1421 13.0456 18.4046 13.5034C18.667 13.9612 19.0446 14.3424 19.5 14.609L20.5 15.188L19.012 17.766L18 17.184C17.5434 16.9232 17.0264 16.7866 16.5005 16.7879C15.9747 16.7892 15.4584 16.9283 15.0031 17.1914C14.5478 17.4544 14.1694 17.8322 13.9057 18.2872C13.6419 18.7421 13.502 19.2582 13.5 19.784V21H10.5V19.784C10.4985 19.2579 10.359 18.7415 10.0954 18.2862C9.83177 17.8309 9.45331 17.4528 8.9978 17.1897C8.5423 16.9265 8.0257 16.7874 7.49964 16.7864C6.97357 16.7855 6.45645 16.9225 5.99996 17.184L4.99296 17.766L3.49996 15.188L4.49996 14.609C4.9553 14.3424 5.33294 13.9612 5.59536 13.5034C5.85779 13.0456 5.99586 12.5272 5.99586 11.9995C5.99586 11.4718 5.85779 10.9534 5.59536 10.4956C5.33294 10.0378 4.9553 9.65664 4.49996 9.39Z" fill="#444BF2"/>
</svg>
