<svg width="24" height="24" viewBox="0 0 24 24" fill="none" xmlns="http://www.w3.org/2000/svg">
<path d="M6 21H18C18.1989 21 18.3897 21.079 18.5303 21.2197C18.671 21.3603 18.75 21.5511 18.75 21.75C18.75 21.9489 18.671 22.1397 18.5303 22.2803C18.3897 22.421 18.1989 22.5 18 22.5H6C5.80109 22.5 5.61032 22.421 5.46967 22.2803C5.32902 22.1397 5.25 21.9489 5.25 21.75C5.25 21.5511 5.32902 21.3603 5.46967 21.2197C5.61032 21.079 5.80109 21 6 21ZM12.75 18.75V10.0605L14.4698 11.7803C14.6112 11.9169 14.8007 11.9925 14.9973 11.9908C15.1939 11.9891 15.3821 11.9102 15.5211 11.7711C15.6602 11.6321 15.739 11.444 15.7408 11.2473C15.7425 11.0507 15.6669 10.8612 15.5303 10.7198L12.5302 7.71975C12.4604 7.65027 12.3776 7.59522 12.2865 7.55775C12.1958 7.51963 12.0984 7.5 12 7.5C11.9016 7.5 11.8042 7.51963 11.7135 7.55775C11.6224 7.59522 11.5396 7.65027 11.4698 7.71975L8.46975 10.7198C8.39812 10.7889 8.34098 10.8717 8.30167 10.9632C8.26237 11.0547 8.24168 11.1531 8.24081 11.2527C8.23995 11.3523 8.25892 11.451 8.29663 11.5432C8.33434 11.6354 8.39003 11.7191 8.46045 11.7896C8.53087 11.86 8.61461 11.9157 8.70678 11.9534C8.79896 11.9911 8.89772 12.0101 8.9973 12.0092C9.09689 12.0083 9.1953 11.9876 9.2868 11.9483C9.37831 11.909 9.46106 11.8519 9.53025 11.7803L11.25 10.0605V18.75C11.25 18.9489 11.329 19.1397 11.4697 19.2803C11.6103 19.421 11.8011 19.5 12 19.5C12.1989 19.5 12.3897 19.421 12.5303 19.2803C12.671 19.1397 12.75 18.9489 12.75 18.75Z" fill="#444BF2"/>
<path d="M16.708 1.294C16.6155 1.20157 16.5058 1.12819 16.385 1.078C16.2632 1.02649 16.1323 0.999969 16 1H4C3.73478 1 3.48043 1.10536 3.29289 1.29289C3.10536 1.48043 3 1.73478 3 2V22C3 22.2652 3.10536 22.5196 3.29289 22.7071C3.48043 22.8946 3.73478 23 4 23H20C20.2652 23 20.5196 22.8946 20.7071 22.7071C20.8946 22.5196 21 22.2652 21 22V6C20.999 5.73451 20.8933 5.48013 20.706 5.292L16.708 1.294ZM19 21H5V3H15V6C15 6.26522 15.1054 6.51957 15.2929 6.70711C15.4804 6.89464 15.7348 7 16 7H19V21Z" fill="#444BF2"/>
</svg>
