<svg width="26" height="5" viewBox="0 0 26 5" fill="none" xmlns="http://www.w3.org/2000/svg">
<path d="M15.2809 2.5C15.2809 2.99445 15.1452 3.4778 14.8909 3.88893C14.6367 4.30005 14.2753 4.62048 13.8525 4.8097C13.4296 4.99892 12.9644 5.04842 12.5155 4.95196C12.0666 4.8555 11.6543 4.6174 11.3307 4.26777C11.007 3.91813 10.7867 3.47268 10.6974 2.98772C10.6081 2.50277 10.6539 2.00011 10.8291 1.54329C11.0042 1.08648 11.3008 0.696029 11.6813 0.421326C12.0619 0.146623 12.5093 0 12.9669 0C13.5806 0 14.1692 0.263393 14.6032 0.732233C15.0371 1.20107 15.2809 1.83696 15.2809 2.5ZM3.13237 0C2.6747 0 2.22731 0.146623 1.84678 0.421326C1.46624 0.696029 1.16965 1.08648 0.994504 1.54329C0.819362 2.00011 0.773537 2.50277 0.862823 2.98772C0.95211 3.47268 1.1725 3.91813 1.49612 4.26777C1.81974 4.6174 2.23206 4.8555 2.68093 4.95196C3.1298 5.04842 3.59507 4.99892 4.01791 4.8097C4.44074 4.62048 4.80213 4.30005 5.0564 3.88893C5.31067 3.4778 5.44638 2.99445 5.44638 2.5C5.44638 1.83696 5.20259 1.20107 4.76862 0.732233C4.33466 0.263393 3.74609 0 3.13237 0ZM22.8015 0C22.3438 0 21.8964 0.146623 21.5159 0.421326C21.1353 0.696029 20.8387 1.08648 20.6636 1.54329C20.4885 2.00011 20.4426 2.50277 20.5319 2.98772C20.6212 3.47268 20.8416 3.91813 21.1652 4.26777C21.4888 4.6174 21.9012 4.8555 22.35 4.95196C22.7989 5.04842 23.2642 4.99892 23.687 4.8097C24.1098 4.62048 24.4712 4.30005 24.7255 3.88893C24.9798 3.4778 25.1155 2.99445 25.1155 2.5C25.1155 1.83696 24.8717 1.20107 24.4377 0.732233C24.0038 0.263393 23.4152 0 22.8015 0Z" fill="#C2C9D1"/>
</svg>
