<svg width="25" height="24" viewBox="0 0 25 24" fill="none" xmlns="http://www.w3.org/2000/svg">
<path d="M10.4166 15L10.4166 12" stroke="#444BF2" stroke-width="2" stroke-linecap="round"/>
<path d="M14.5834 15L14.5834 12" stroke="#444BF2" stroke-width="2" stroke-linecap="round"/>
<path d="M3.125 7H21.875V7C20.8256 7 20.3009 7 19.8949 7.19202C19.4766 7.38986 19.1399 7.7266 18.942 8.14489C18.75 8.55088 18.75 9.07559 18.75 10.125V16C18.75 17.8856 18.75 18.8284 18.1642 19.4142C17.5784 20 16.6356 20 14.75 20H10.25C8.36438 20 7.42157 20 6.83579 19.4142C6.25 18.8284 6.25 17.8856 6.25 16V10.125C6.25 9.07559 6.25 8.55088 6.05798 8.14489C5.86014 7.7266 5.5234 7.38986 5.10511 7.19202C4.69911 7 4.17441 7 3.125 7V7Z" stroke="#444BF2" stroke-width="2" stroke-linecap="round"/>
<path d="M10.4877 3.37059C10.6064 3.26427 10.8679 3.17033 11.2318 3.10332C11.5956 3.03632 12.0414 3 12.5 3C12.9587 3 13.4045 3.03632 13.7683 3.10332C14.1321 3.17033 14.3937 3.26427 14.5124 3.37059" stroke="#444BF2" stroke-width="2" stroke-linecap="round"/>
</svg>
