<svg width="16" height="15" viewBox="0 0 16 15" fill="none" xmlns="http://www.w3.org/2000/svg">
<path fill-rule="evenodd" clip-rule="evenodd" d="M1.17157 1.17157C0 2.34315 0 4.22876 0 8V12V13.5858C0 14.4767 1.07714 14.9229 1.70711 14.2929L3.85355 12.1464C3.92581 12.0742 3.96194 12.0381 4.00788 12.019C4.05383 12 4.10492 12 4.20711 12H10C11.8638 12 12.7956 12 13.5307 11.6955C14.5108 11.2895 15.2895 10.5108 15.6955 9.53073C16 8.79565 16 7.86377 16 6C16 4.13623 16 3.20435 15.6955 2.46927C15.2895 1.48915 14.5108 0.710458 13.5307 0.304482C12.7956 0 11.8638 0 10 0H8C4.22876 0 2.34315 0 1.17157 1.17157Z" fill="black"/>
</svg>
