<svg viewBox="0 0 20 20" fill="none" xmlns="http://www.w3.org/2000/svg">
<path d="M2.66659 17.3334H13.6666V12.75C13.6666 12.5069 13.7632 12.2738 13.9351 12.1018C14.107 11.9299 14.3401 11.8334 14.5833 11.8334C14.8264 11.8334 15.0595 11.9299 15.2314 12.1018C15.4033 12.2738 15.4999 12.5069 15.4999 12.75V18.25C15.4999 18.4931 15.4033 18.7263 15.2314 18.8982C15.0595 19.0701 14.8264 19.1667 14.5833 19.1667H1.74992C1.5068 19.1667 1.27365 19.0701 1.10174 18.8982C0.929829 18.7263 0.833252 18.4931 0.833252 18.25V12.75C0.833252 12.5069 0.929829 12.2738 1.10174 12.1018C1.27365 11.9299 1.5068 11.8334 1.74992 11.8334C1.99303 11.8334 2.22619 11.9299 2.3981 12.1018C2.57001 12.2738 2.66659 12.5069 2.66659 12.75V17.3334ZM7.24992 10V13.6667C7.24992 13.9098 7.3465 14.143 7.5184 14.3149C7.69031 14.4868 7.92347 14.5834 8.16658 14.5834C8.4097 14.5834 8.64286 14.4868 8.81477 14.3149C8.98667 14.143 9.08325 13.9098 9.08325 13.6667V10C9.08471 8.7849 9.56806 7.61996 10.4273 6.76073C11.2865 5.9015 12.4515 5.41815 13.6666 5.4167H16.126L14.9903 6.6212C14.8235 6.79818 14.7338 7.03417 14.7411 7.27725C14.7483 7.52033 14.8518 7.75059 15.0288 7.91736C15.2057 8.08414 15.4417 8.17378 15.6848 8.16656C15.9279 8.15934 16.1581 8.05585 16.3249 7.87886L18.8989 5.14903L18.9173 5.1307C18.9475 5.09016 18.9745 5.04724 18.9979 5.00236C19.0365 4.95388 19.0697 4.90131 19.0969 4.84561C19.1868 4.62526 19.1868 4.37847 19.0969 4.15811C19.0696 4.10248 19.0364 4.04993 18.9979 4.00136C18.9745 3.95648 18.9475 3.91357 18.9173 3.87303L18.8989 3.8547L16.3249 1.1212C16.2428 1.03193 16.1437 0.959853 16.0335 0.909151C15.9233 0.858449 15.8041 0.830129 15.6829 0.825832C15.5616 0.821534 15.4407 0.841346 15.3272 0.884117C15.2137 0.926889 15.1098 0.99177 15.0215 1.075C14.9333 1.15823 14.8624 1.25815 14.813 1.36897C14.7637 1.47979 14.7368 1.59931 14.734 1.72059C14.7312 1.84187 14.7524 1.96251 14.7966 2.07551C14.8407 2.18851 14.9069 2.29162 14.9912 2.37886L16.126 3.58336H13.6666C11.9654 3.58555 10.3346 4.26229 9.13173 5.46517C7.92884 6.66806 7.2521 8.29889 7.24992 10Z" fill="black"/>
</svg>
