<svg width="56" height="56" viewBox="0 0 56 56" fill="none" xmlns="http://www.w3.org/2000/svg">
<path d="M30.7335 7H20.9998C16.6001 7 14.4002 7 13.0333 8.36684C11.6665 9.73367 11.6665 11.9336 11.6665 16.3333V39.6667C11.6665 44.0664 11.6665 46.2663 13.0333 47.6332C14.4002 49 16.6001 49 20.9998 49H34.9998C39.3996 49 41.5995 49 42.9663 47.6332C44.3332 46.2663 44.3332 44.0664 44.3332 39.6667V20.5997C44.3332 19.6459 44.3332 19.169 44.1556 18.7402C43.9779 18.3114 43.6407 17.9742 42.9663 17.2998L34.0333 8.36684C33.3589 7.69243 33.0217 7.35523 32.5929 7.17761C32.1641 7 31.6873 7 30.7335 7Z" stroke="#444BF2" stroke-width="2"/>
<path d="M32.3291 32.8553L24.903 29.6727C23.0553 28.8809 21 30.2362 21 32.2463V37.7537C21 39.7639 23.0553 41.1191 24.903 40.3273L32.3291 37.1447C34.2147 36.3366 34.2147 33.6634 32.3291 32.8553Z" stroke="#444BF2" stroke-width="2" stroke-linecap="round" stroke-linejoin="round"/>
<path d="M30.3335 7V16.3333C30.3335 18.5332 30.3335 19.6332 31.0169 20.3166C31.7003 21 32.8003 21 35.0002 21H44.3335" stroke="#444BF2" stroke-width="2"/>
</svg>
